sat
b0
#0
@0
0 00000000
1 00000000
2 00000001
3 00000001
4 00000001
5 00000000
6 00000000
7 00000000
8 00000000
9 00000000
10 0
11 0
12 1
13 0
14 0
15 0
16 1
17 1
18 0
19 0
20 0
21 0
22 0
23 1
24 1
25 0
26 0
27 0
28 0
29 0
30 1
31 0
32 1
33 0
34 0
35 0
36 0
37 1
38 0
39 1
40 0
41 0
42 0
43 0
44 1
45 0
46 0
47 0
48 0
49 0
50 0
51 0
52 0
53 0
54 0
55 0
56 0
57 0
58 0
59 0
60 0
61 0
62 0
63 0
64 0
65 1
66 1
67 0
68 1
69 0
70 1
71 1
72 0
73 0
74 1
@1
0 00000000
1 00000001
2 00000001
3 00000000
4 00000001
5 00000000
6 00000000
7 00000000
8 00000000
9 00000000
10 0
11 1
12 0
13 0
14 0
15 0
16 1
17 1
18 0
19 0
20 0
21 0
22 0
23 1
24 1
25 0
26 0
27 0
28 0
29 0
30 1
31 0
32 1
33 0
34 0
35 0
36 0
37 1
38 0
39 1
40 0
41 0
42 0
43 0
44 1
45 1
46 0
47 0
48 0
49 0
50 0
51 1
52 0
53 0
54 0
55 0
56 0
57 0
58 0
59 1
60 0
61 0
62 0
63 0
64 0
65 0
66 0
67 0
68 0
69 0
70 0
71 0
72 0
73 0
74 0
@2
0 00000000
1 00000000
2 00000000
3 00000000
4 00000001
5 00000000
6 00000000
7 00000000
8 00000000
9 00000000
10 0
11 1
12 0
13 0
14 0
15 0
16 1
17 0
18 1
19 0
20 0
21 0
22 0
23 1
24 1
25 0
26 0
27 0
28 0
29 0
30 1
31 0
32 1
33 0
34 0
35 0
36 0
37 1
38 0
39 1
40 0
41 0
42 0
43 1
44 0
45 0
46 0
47 0
48 0
49 0
50 0
51 0
52 0
53 0
54 1
55 0
56 0
57 1
58 0
59 0
60 0
61 0
62 0
63 0
64 0
65 0
66 0
67 0
68 0
69 0
70 0
71 0
72 0
73 0
74 0
@3
0 00000000
1 00000000
2 00000000
3 00000000
4 00000001
5 00000000
6 00000000
7 00000000
8 00000000
9 00000000
10 0
11 1
12 0
13 0
14 0
15 0
16 1
17 0
18 1
19 0
20 0
21 0
22 0
23 1
24 1
25 0
26 0
27 0
28 0
29 0
30 1
31 0
32 1
33 0
34 0
35 0
36 0
37 1
38 1
39 0
40 0
41 0
42 1
43 0
44 0
45 0
46 0
47 0
48 0
49 0
50 0
51 0
52 0
53 0
54 0
55 0
56 0
57 0
58 0
59 0
60 0
61 0
62 0
63 0
64 0
65 0
66 0
67 0
68 0
69 0
70 1
71 0
72 0
73 0
74 0
@4
0 00000000
1 00000000
2 00000000
3 00000000
4 00000000
5 00000000
6 00000000
7 00000000
8 00000000
9 00000000
10 0
11 1
12 0
13 0
14 0
15 0
16 1
17 0
18 1
19 0
20 0
21 0
22 0
23 1
24 0
25 1
26 0
27 0
28 0
29 0
30 1
31 1
32 0
33 0
34 0
35 1
36 0
37 0
38 1
39 0
40 0
41 1
42 0
43 0
44 0
45 0
46 0
47 0
48 0
49 0
50 0
51 0
52 0
53 0
54 0
55 0
56 0
57 0
58 0
59 0
60 0
61 0
62 1
63 0
64 0
65 1
66 0
67 0
68 0
69 0
70 0
71 0
72 0
73 1
74 0
@5
0 00000000
1 00000000
2 00000000
3 00000000
4 00000000
5 00000000
6 00000000
7 00000000
8 00000000
9 00000000
10 0
11 1
12 0
13 0
14 0
15 0
16 1
17 0
18 1
19 0
20 0
21 0
22 0
23 1
24 1
25 0
26 0
27 0
28 1
29 0
30 0
31 1
32 0
33 0
34 1
35 0
36 0
37 0
38 1
39 0
40 0
41 1
42 0
43 0
44 0
45 0
46 0
47 0
48 0
49 0
50 0
51 0
52 0
53 0
54 0
55 0
56 0
57 0
58 0
59 0
60 1
61 0
62 0
63 0
64 0
65 0
66 0
67 0
68 1
69 0
70 0
71 0
72 0
73 0
74 0
@6
0 00000000
1 00000000
2 00000000
3 00000000
4 00000000
5 00000000
6 00000000
7 00000000
8 00000000
9 00000000
10 0
11 1
12 0
13 0
14 0
15 0
16 1
17 1
18 0
19 0
20 0
21 1
22 0
23 0
24 1
25 0
26 0
27 1
28 0
29 0
30 0
31 1
32 0
33 0
34 1
35 0
36 0
37 0
38 1
39 0
40 0
41 1
42 0
43 0
44 0
45 0
46 0
47 0
48 0
49 0
50 0
51 0
52 0
53 0
54 0
55 1
56 0
57 0
58 0
59 0
60 0
61 0
62 0
63 1
64 0
65 0
66 0
67 0
68 0
69 0
70 0
71 0
72 0
73 0
74 0
@7
0 00000000
1 00000000
2 00000000
3 00000000
4 00000000
5 00000000
6 00000000
7 00000000
8 00000000
9 00000000
10 1
11 0
12 0
13 0
14 1
15 0
16 0
17 1
18 0
19 0
20 1
21 0
22 0
23 0
24 1
25 0
26 0
27 1
28 0
29 0
30 0
31 1
32 0
33 0
34 1
35 0
36 0
37 0
38 1
39 0
40 0
41 1
42 0
43 0
44 0
45 0
46 0
47 0
48 0
49 0
50 1
51 0
52 0
53 0
54 0
55 0
56 0
57 0
58 1
59 0
60 0
61 0
62 0
63 0
64 0
65 0
66 0
67 0
68 0
69 0
70 0
71 0
72 0
73 0
74 0
@8
0 00000000
1 00000000
2 00000000
3 00000000
4 00000000
5 00000000
6 00000000
7 00000000
8 00000000
9 00000000
10 1
11 0
12 0
13 0
14 1
15 0
16 0
17 1
18 0
19 0
20 1
21 0
22 0
23 0
24 1
25 0
26 0
27 1
28 0
29 0
30 0
31 1
32 0
33 0
34 1
35 0
36 0
37 0
38 1
39 0
40 0
41 1
42 0
43 0
44 0
45 0
46 0
47 0
48 0
49 0
50 1
51 0
52 0
53 0
54 0
55 0
56 0
57 0
58 1
59 0
60 0
61 0
62 0
63 0
64 0
65 0
66 0
67 0
68 0
69 0
70 0
71 0
72 0
73 0
74 0
.
